# xmcd
#
# Track frame offsets: 
#        150
#        20722
#        42188
#        60076
#        80086
#        97988
#        117531
#        135487
#        160721
#        180290
#
# Disc length: 2638 seconds
#
# Revision: 0
# Processed by: cddbd v1.5.2PL0 Copyright (c) Steve Scherf et al.
# Submitted via: ExactAudioCopy v0.99pb5
#
DISCID=730a4c0a
DTITLE=Giant Panda Guerilla Dub Squad - Country
DYEAR=2012
DGENRE=Country
TTITLE0=Sunshine
TTITLE1=Far Away
TTITLE2=Country
TTITLE3=Get Me Through
TTITLE4=Kids In The Sqaure
TTITLE5=Healing
TTITLE6=In These Times
TTITLE7=New Speedway Boogie
TTITLE8=Love You More
TTITLE9=All Night Music
EXTD=
EXTT0=
EXTT1=
EXTT2=
EXTT3=
EXTT4=
EXTT5=
EXTT6=
EXTT7=
EXTT8=
EXTT9=
PLAYORDER=
